<svg xmlns="http://www.w3.org/2000/svg" version="1.1" xmlns:xlink="http://www.w3.org/1999/xlink" xmlns:svgjs="http://svgjs.dev/svgjs" viewBox="0 0 800 800"><defs><linearGradient x1="50%" y1="0%" x2="50%" y2="100%" id="ssscribble-grad"><stop stop-color="hsl(0, 0%, 100%)" stop-opacity="1" offset="0%"></stop><stop stop-color="hsl(290, 87%, 47%)" stop-opacity="1" offset="100%"></stop></linearGradient></defs><g fill="none" stroke-width="2.25" stroke="url(#ssscribble-grad)" stroke-linecap="round"><path d="M657.82 382.66C728.87 407.52 768.24 448.35 773.81 500.83 752.88 552.62 707.55 613.23 650.96 673.68 585.3 723.76 521.79 760.39 468.78 771.58 415.81 757.39 375.02 711.04 350.17 636.31 325.32 552.36 318.75 471.35 328.65 406.27 338.59 360.88 363.31 335.63 396.39 325.32 420.42 329.31 439.39 335.86 442.1 336.57 418.31 340.24 368.87 331.58 297.82 306.73 213.6 281.87 139.19 243.18 87.22 196.43 53.97 152.66 49.56 107.33 67.61 70.76 100.68 48.49 143.84 47.38 186.51 74.55 232.47 121.41 270.87 192.33 295.72 276.28 320.57 351.02 329.53 407.45 326.64 439.86 327.04 446.89 322.67 436.63 322.17 419.13 336.69 391.24 367.46 369.42 418.93 360.7 489.12 351.29 573.6 357.81 657.82 382.66Q657.82 382.66 657.82 382.66" opacity="0.83"></path><path d="M650.29 408.21C718.82 432.02 758.23 471.12 766.45 520.96 750.36 569.7 710.95 625.85 659.95 680.65 599.67 725.13 540.18 756.1 489.81 762.95 438.96 746.67 399.59 700.77 375.77 628.8 351.95 548.36 345.94 470.09 355.52 405.92 364.62 359.1 386.94 330.63 416 316.44 435.79 315.63 449.93 318.19 448.56 316.46 422.89 317.81 373.82 308.44 305.29 284.62 224.67 260.81 152.91 224.8 101.46 182.17 66.37 142.63 57.82 102.9 70.66 72.49 97.46 55.47 134.82 58.67 173.08 88.03 214.72 134.73 250.31 203.33 274.12 283.77 297.94 355.75 307.73 411.32 307.37 445.06 310.38 455.67 310.19 449.96 314.61 436.71 332.99 413.12 366.79 394.14 419.35 386.68 488.25 378.11 569.67 384.39 650.29 408.21Q650.29 408.21 650.29 408.21" opacity="0.95"></path><path d="M642.53 433.55C708.55 456.34 747.91 493.47 758.57 540.33 747.08 585.77 713.44 637.23 668.04 686.35 613.32 725.34 558.18 750.93 510.77 753.79 462.46 735.7 424.77 690.39 401.99 621.22 379.21 544.29 373.49 468.86 382.32 405.85 390.25 358 409.83 326.76 434.7 309.06 450.23 303.72 459.71 302.39 454.51 298.22 427.14 297.14 378.55 286.97 312.53 264.19 235.48 241.41 166.46 208.17 115.82 169.77 73.29 117.35 112.13 67.09 161.91 101.78 199.17 148.1 231.88 214.29 254.67 291.22 277.45 360.39 288.14 414.93 290.36 449.72 295.94 463.56 299.72 462.13 308.67 453 330.43 433.75 366.72 417.84 419.89 411.88 487.22 404.5 565.48 410.77 642.53 433.55Q642.53 433.55 642.53 433.55" opacity="0.13"></path><path d="M635.29 458.55C698.63 480.3 737.61 515.27 750.27 558.88 742.86 600.82 714.57 647.48 674.56 690.92 625.39 724.59 574.78 745.11 530.58 744.33 485.15 724.69 449.38 680.14 427.63 613.8 405.89 540.38 400.22 467.89 407.96 406.27 414.48 357.78 431.15 324.22 451.83 303.39 463.33 293.87 468.56 288.84 460.02 282.26 431.42 278.74 383.63 267.71 320.29 245.96 246.84 224.22 180.61 193.81 130.92 159.65 85.66 114.08 110.04 78.23 152.73 116.01 185.55 161.69 215.32 225.36 237.06 298.77 258.81 365.12 270.48 418.49 275.34 454.08 283.48 470.8 291.13 473.35 304.36 468.18 329.21 453.25 367.66 440.53 421.16 436.27 486.79 430.35 561.84 436.81 635.29 458.55Q635.29 458.55 635.29 458.55" opacity="0.77"></path><path d="M627.79 482.59C688.47 503.3 726.98 535.96 741.45 576.1 737.87 614.42 714.73 656.2 680.01 694.05 636.43 722.63 590.53 738.4 549.74 734.33 507.49 713.41 473.83 669.77 453.12 606.3 432.41 536.4 426.6 466.94 432.96 406.92 437.86 358.19 451.44 322.76 467.87 299.22 475.45 285.89 476.62 277.39 465.02 268.52 435.37 262.59 388.47 250.69 327.79 229.98 257.93 209.27 194.58 181.7 146.1 151.75 98.85 112.81 110.23 90.21 146.17 130.5 174.67 175.33 201.51 236.4 222.22 306.3 242.93 369.77 255.55 421.8 262.95 457.9 273.47 477.15 284.65 483.35 301.66 481.92 329.09 471.21 369.13 461.75 422.52 459.33 486.18 455.08 557.93 461.88 627.79 482.59Q627.79 482.59 627.79 482.59" opacity="0.40"></path><path d="M620.32 505.39C678.3 525.06 716.16 555.29 732.15 591.82 732.04 626.44 713.71 663.36 684.08 695.77 646.02 719.5 604.9 730.88 567.66 723.89 528.81 701.96 497.42 659.38 477.75 598.81 458.07 532.43 451.96 466.08 456.72 407.89 459.86 359.27 470.27 322.43 482.55 296.62 486.4 279.9 483.86 268.23 469.55 257.22 439.13 248.98 393.3 236.25 335.32 216.58 269.04 196.9 208.63 172.14 161.57 146.28 112.94 113.67 112.66 103.1 142.2 145.28 166.49 189.05 190.46 247.43 210.13 313.81 229.81 374.38 243.33 424.93 253.14 461.29 265.86 482.69 280.24 492.19 300.56 494.24 330.1 487.61 371.27 481.4 424.16 480.87 485.64 478.45 554.01 485.7 620.29 505.38Q620.32 505.39 620.32 505.39" opacity="0.88"></path><path d="M612.66 526.53C667.93 545.17 705.03 572.9 722.32 605.73 725.36 636.64 711.55 668.78 686.8 695.97 654.15 715.14 617.84 722.49 584.26 712.95 548.97 690.26 519.98 648.89 501.34 591.26 482.7 528.42 476.17 465.25 479.16 409.09 480.45 360.96 487.66 323.16 495.88 295.51 496.2 275.85 490.24 261.35 473.54 248.4 442.58 238.02 397.93 224.52 342.66 205.88 279.95 187.24 222.57 165.22 177.13 143.31 127.77 116.66 117.33 116.82 140.94 160.3 161.25 202.8 182.43 258.42 201.07 321.26 219.71 378.89 234.04 427.81 246.03 464.16 260.69 487.37 277.85 499.79 300.96 505.05 332.11 502.29 373.9 499.24 425.91 500.64 485.02 500.11 549.95 507.89 612.66 526.53Q612.66 526.53 612.66 526.53" opacity="0.18"></path><path d="M605.29 545.86C709.91 612.21 592.25 700.56 523.09 583.8 487.88 465.42 492.04 360.35 507.59 295.99 494.26 259.08 444.09 233.42 350.29 198.21 230.47 163 147.33 124.92 122.68 115.68 125.38 133.89 159.81 210.42 195.02 328.8 230.23 428.93 259.54 490.74 303 514.42 373.79 509.18 485.47 510.65 605.29 545.86Q605.29 545.86 605.29 545.86" opacity="0.81"></path><path d="M597.82 562.95C700.06 623.24 606.12 689.59 543.01 576.31 509.87 464.7 509.83 363.13 517.81 297.91 499.53 256.13 447.44 226.68 357.82 193.55 245.04 160.41 164.45 129.85 136.74 128.2 132.15 150 159.07 224.7 192.21 336.31 225.35 431.7 258.42 494.35 306.44 522.21 377.58 524.11 485.02 529.81 597.79 562.94Q597.82 562.95 597.82 562.95" opacity="0.40"></path><path d="M590.32 577.57C689.65 631.92 617.84 678.11 560.72 568.81 529.65 464.03 525.5 366.51 526.45 301.23 503.91 255.63 450.59 223.06 365.32 192 259.63 160.93 182.11 137.25 152.18 142.13 141.43 166.69 161.58 239.03 192.65 343.81 223.71 434.29 259.82 497.11 311.28 528.44 381.92 536.81 484.63 546.5 590.32 577.57Q590.32 577.57 590.32 577.57" opacity="0.82"></path><path d="M582.63 589.46C678.62 638.03 627.25 666.06 576.04 561.25 547.04 463.38 538.99 370.39 533.5 305.85 507.35 257.5 453.4 222.52 372.63 193.52 274.07 164.53 200.12 147.01 168.8 157.35 153.1 183.9 167.28 253.38 196.28 351.25 225.27 436.63 263.59 498.99 317.29 533.03 386.61 547.12 484.07 560.46 582.63 589.46Q582.63 589.46 582.63 589.46" opacity="0.32"></path><path d="M575.29 598.59C667.23 641.61 633.93 653.64 588.4 553.8 561.48 462.87 549.94 374.89 538.9 311.84 510.02 261.83 456.27 225.2 380.29 198.28 288.91 171.36 218.91 159.24 186.9 173.95 167.27 201.72 176.23 267.87 203.16 358.8 230.08 438.93 269.86 500.17 324.78 536.17 392.08 555.12 483.91 571.67 575.29 598.59Q575.29 598.59 575.29 598.59" opacity="0.84"></path><path d="M567.82 604.68C655.26 642.43 637.96 640.71 597.91 546.31 573.05 462.36 558.46 379.81 542.69 318.97 511.8 268.38 458.86 230.89 387.82 206.04 303.6 181.18 237.96 173.67 206.02 191.69 183.61 219.96 188.24 282.36 213.09 366.31 237.94 441.04 278.32 500.54 333.3 537.71 397.82 560.62 483.6 579.82 567.82 604.68Q567.82 604.68 567.82 604.68" opacity="0.40"></path><path d="M560.16 607.62C642.68 640.41 639.22 627.28 604.37 538.76 581.59 461.82 564.47 385.1 544.83 327.14 512.68 277 461.15 239.45 395.16 216.67 318.12 193.89 257.21 190.19 226 210.47 201.92 238.57 203.05 296.82 225.83 373.76 248.61 442.93 288.73 500.09 342.68 537.68 403.74 563.59 483.12 584.84 560.16 607.62Q560.16 607.62 560.16 607.62" opacity="0.91"></path><path d="M552.82 607.53C629.8 635.67 637.57 613.5 607.59 531.31 586.87 461.4 567.91 390.85 545.46 336.4 512.89 287.7 463.49 250.87 402.82 230.16 332.95 209.45 277.05 208.77 247.15 230.33 222.34 257.63 220.77 311.4 241.48 381.31 262.19 444.78 301.27 499.01 353.22 536.26 410.26 564.19 482.95 586.81 552.82 607.53Q552.82 607.53 552.82 607.53" opacity="0.62"></path><path d="M545.32 604.25C643.04 641.52 644.86 628.49 607.59 523.81 570.31 398.73 508.04 283.44 410.32 246.17 283.49 208.89 222.23 263.73 259.51 388.81 296.78 493.49 418.49 566.97 545.32 604.25Q545.32 604.25 545.32 604.25" opacity="0.38"></path><path d="M537.82 597.89C627.43 631.02 637.49 611.69 604.36 516.31 571.22 404.7 507.43 297.64 417.82 264.51 305.04 231.37 246.59 284.7 279.73 396.31 312.86 491.69 425.04 564.75 537.82 597.89Q537.82 597.89 537.82 597.89" opacity="0.42"></path><path d="M530.29 588.53C611.02 617.53 626.91 594.18 597.92 508.8 568.92 410.91 506.02 313.87 425.29 284.87 326.76 255.88 272.8 305.91 301.8 403.8 330.79 489.18 431.76 559.54 530.29 588.53Q530.29 588.53 530.29 588.53" opacity="0.68"></path><path d="M522.82 576.35C593.86 601.2 613.27 576.04 588.42 501.31 563.56 417.34 503.86 331.85 432.82 307 348.58 282.14 300.59 327.34 325.45 411.31 350.3 486.04 438.58 551.49 522.82 576.35Q522.82 576.35 522.82 576.35" opacity="0.22"></path><path d="M515.32 561.49C575.99 582.2 596.68 557.28 575.97 493.81 555.25 423.88 500.99 351.23 440.32 330.52 370.43 309.8 329.53 348.88 350.25 418.81 370.96 482.28 445.43 540.77 515.32 561.49Q515.32 561.49 515.32 561.49" opacity="0.88"></path><path d="M507.82 544.19C557.44 560.75 577.33 537.94 560.77 486.31 544.2 430.53 497.44 371.65 447.82 355.09 392.27 338.52 359.24 370.53 375.81 426.31 392.37 477.94 452.27 527.62 507.82 544.19Q507.82 544.19 507.82 544.19" opacity="0.13"></path><path d="M500.32 524.72C538.3 537.14 555.48 518.14 543.06 478.81 530.63 437.13 493.3 392.75 455.32 380.33 413.98 367.9 389.33 392.13 401.76 433.81 414.18 473.14 458.98 512.29 500.32 524.72Q500.32 524.72 500.32 524.72" opacity="0.98"></path><path d="M492.82 503.36C518.61 511.64 531.4 497.89 523.12 471.31 514.83 443.67 488.61 414.16 462.82 405.88 435.51 397.59 419.39 413.67 427.68 441.31 435.96 467.89 465.51 495.07 492.82 503.36Q492.82 503.36 492.82 503.36" opacity="0.58"></path></g></svg>